HIERARCHY
ROOT Hips
{
	OFFSET 0.000000 0.000000 0.000000
	CHANNELS 6 Xposition Yposition Zposition Zrotation Yrotation Xrotation 
	JOINT LeftUpLeg_virtual
	{
		OFFSET 0.000000 0.000000 0.000000
		CHANNELS 3 Zrotation Yrotation Xrotation
		JOINT LeftUpLeg
		{
			OFFSET 8.479694 -4.795517 -0.379053
			CHANNELS 3 Zrotation Yrotation Xrotation
			JOINT LeftLeg
			{
				OFFSET 0.485052 -32.551468 0.112863
				CHANNELS 3 Zrotation Yrotation Xrotation
				JOINT LeftFoot
				{
					OFFSET 0.438033 -32.635670 -3.012641
					CHANNELS 3 Zrotation Yrotation Xrotation
					JOINT LeftToeBase
					{
						OFFSET 0.970169 -13.225353 11.864223
						CHANNELS 3 Zrotation Yrotation Xrotation
						End Site
						{
							OFFSET 0.000000 0.000000 0.000000
						}
					}
				}
			}
		}
	}
	JOINT RightUpLeg_virtual
	{
		OFFSET 0.000000 0.000000 0.000000
		CHANNELS 3 Zrotation Yrotation Xrotation
		JOINT RightUpLeg
		{
			OFFSET -8.479694 -4.795517 -0.379053
			CHANNELS 3 Zrotation Yrotation Xrotation
			JOINT RightLeg
			{
				OFFSET -0.484100 -32.551483 0.112903
				CHANNELS 3 Zrotation Yrotation Xrotation
				JOINT RightFoot
				{
					OFFSET -0.438985 -32.635651 -3.012681
					CHANNELS 3 Zrotation Yrotation Xrotation
					JOINT RightToeBase
					{
						OFFSET -0.970169 -13.225354 11.864223
						CHANNELS 3 Zrotation Yrotation Xrotation
						End Site
						{
							OFFSET 0.000000 0.000000 0.000000
						}
					}
				}
			}
		}
	}
	JOINT Spine_virtual
	{
		OFFSET 0.000000 0.000000 0.000000
		CHANNELS 3 Zrotation Yrotation Xrotation
		JOINT Spine
		{
			OFFSET 0.000000 7.722015 1.166203
			CHANNELS 3 Zrotation Yrotation Xrotation
			JOINT Spine1
			{
				OFFSET 0.000000 12.024086 0.248766
				CHANNELS 3 Zrotation Yrotation Xrotation
				JOINT Spine2
				{
					OFFSET -0.000000 11.503036 -0.491240
					CHANNELS 3 Zrotation Yrotation Xrotation
					JOINT Neck_virtual
					{
						OFFSET 0.000000 0.000000 0.000000
						CHANNELS 3 Zrotation Yrotation Xrotation
						JOINT Neck
						{
							OFFSET 0.000000 18.430687 -3.123054
							CHANNELS 3 Zrotation Yrotation Xrotation
							JOINT Head
							{
								OFFSET -0.000000 9.051071 1.034021
								CHANNELS 3 Zrotation Yrotation Xrotation
								End Site
								{
									OFFSET 0.000000 0.000000 0.000000
								}
							}
						}
					}
					JOINT LeftShoulder_virtual
					{
						OFFSET 0.000000 0.000000 0.000000
						CHANNELS 3 Zrotation Yrotation Xrotation
						JOINT LeftShoulder
						{
							OFFSET 6.197824 13.665230 -4.064723
							CHANNELS 3 Zrotation Yrotation Xrotation
							JOINT LeftArm
							{
								OFFSET 7.778132 -0.187073 -1.709282
								CHANNELS 3 Zrotation Yrotation Xrotation
								JOINT LeftForeArm
								{
									OFFSET 21.954697 0.000000 -2.041093
									CHANNELS 3 Zrotation Yrotation Xrotation
									JOINT LeftHand
									{
										OFFSET 22.992908 0.000000 -0.870901
										CHANNELS 3 Zrotation Yrotation Xrotation
										End Site
										{
											OFFSET 0.000000 0.000000 0.000000
										}
									}
								}
							}
						}
					}
					JOINT RightShoulder_virtual
					{
						OFFSET 0.000000 0.000000 0.000000
						CHANNELS 3 Zrotation Yrotation Xrotation
						JOINT RightShoulder
						{
							OFFSET -6.197824 13.665230 -4.064723
							CHANNELS 3 Zrotation Yrotation Xrotation
							JOINT RightArm
							{
								OFFSET -7.778132 -0.187073 -1.709282
								CHANNELS 3 Zrotation Yrotation Xrotation
								JOINT RightForeArm
								{
									OFFSET -21.954697 0.000000 -2.041093
									CHANNELS 3 Zrotation Yrotation Xrotation
									JOINT RightHand
									{
										OFFSET -22.992908 0.000000 -0.870901
										CHANNELS 3 Zrotation Yrotation Xrotation
										End Site
										{
											OFFSET 0.000000 0.000000 0.000000
										}
									}
								}
							}
						}
					}
				}
			}
		}
	}
}
MOTION
Frames: 7
Frame Time: 0.033333
12.766594 81.720894 23.511660 179.947672 1.119579 179.984555 -3.890029 -1.541934 11.105044 3.150098 -3.730115 -23.121947 4.587572 2.690810 26.707332 -2.017999 -7.716761 -10.100771 0.000000 0.000000 0.000000 0.426155 -2.543232 10.191136 -5.923452 2.213768 -21.598745 -0.766800 4.255004 28.815065 9.058581 5.775060 -9.640720 0.000000 0.000000 0.000000 2.596758 0.692658 -0.906206 -6.335730 2.710178 1.655980 -0.021140 -2.156958 2.748135 -0.036754 0.025828 0.005177 -0.363615 -0.934333 3.238464 0.718998 -1.415103 -12.112311 0.000000 0.000000 0.000000 0.953583 -0.188520 0.719017 11.978502 1.181179 -4.036264 -9.514469 0.897172 -47.044048 0.720158 -32.641033 -6.696669 0.000000 0.000000 0.000000 -2.573926 0.853719 0.205553 4.712837 -13.611437 -3.639129 13.781647 -9.264568 -47.332610 -0.132220 30.924966 -4.493038 0.000000 0.000000 0.000000 
12.773132 81.727394 23.493151 179.964556 1.088320 179.994869 -3.729083 -1.613072 11.157952 3.032971 -3.914186 -23.105692 4.734194 2.662765 26.974360 -2.240752 -7.994000 -10.959111 0.000000 0.000000 0.000000 0.491401 -2.689745 10.142822 -5.783801 1.847147 -21.619031 -0.720216 3.993046 28.916910 8.773502 5.410507 -9.496898 0.000000 0.000000 0.000000 2.569820 0.675098 -0.976765 -6.303862 2.679134 1.745589 0.029160 -2.181322 2.781127 0.034644 0.005796 0.017765 -0.449589 -0.990169 3.176063 0.733679 -1.464692 -12.089797 0.000000 0.000000 0.000000 0.853679 -0.160532 0.651526 11.989721 1.281349 -4.351633 -9.501497 0.900985 -47.081962 0.461438 -32.637431 -6.449370 0.000000 0.000000 0.000000 -2.679341 0.891132 0.154206 4.709366 -13.524330 -3.622555 13.840642 -9.298987 -47.399423 -0.109097 30.920345 -4.479101 0.000000 0.000000 0.000000 
12.785466 81.728806 23.475399 179.957316 1.062096 179.992000 -3.730592 -1.654720 11.171422 3.065843 -3.863156 -23.104865 4.748501 2.639147 26.964972 -2.221562 -7.979652 -10.950466 0.000000 0.000000 0.000000 0.456902 -2.697524 10.148677 -5.779998 1.823583 -21.624140 -0.744194 3.995954 28.933730 8.767964 5.403282 -9.524275 0.000000 0.000000 0.000000 2.555610 0.659302 -0.943101 -6.317963 2.665715 1.697185 0.026616 -2.181148 2.813025 0.033213 -0.001138 -0.071489 -0.449798 -1.025152 3.282538 0.717051 -1.368282 -12.087451 0.000000 0.000000 0.000000 0.865751 -0.177598 0.729600 11.966376 1.234316 -4.105058 -9.543716 0.895820 -46.878529 0.702671 -32.624849 -6.663646 0.000000 0.000000 0.000000 -2.663532 0.906791 0.256063 4.735000 -13.551652 -3.847555 13.823447 -9.331372 -47.383966 0.059492 30.895353 -4.253930 0.000000 0.000000 0.000000 
12.794166 81.728081 23.454462 179.973026 1.096276 -179.957139 -3.728425 -1.658247 11.160846 3.062711 -3.871132 -23.132372 4.712633 2.692088 26.973051 -2.245372 -8.013629 -10.950647 0.000000 0.000000 0.000000 0.485854 -2.645611 10.134172 -5.757881 1.836758 -21.630716 -0.722720 3.969616 28.945245 8.743273 5.380414 -9.527395 0.000000 0.000000 0.000000 2.562738 0.784719 -0.931790 -6.313427 2.623878 1.702238 0.023942 -2.204628 2.785313 0.020838 -0.014811 -0.020434 -0.447011 -1.004655 3.316656 0.758820 -1.583417 -12.054029 0.000000 0.000000 0.000000 0.871482 -0.215153 0.745779 11.978919 1.196972 -4.166539 -9.570083 0.976894 -46.973649 0.589526 -32.619375 -6.543193 0.000000 0.000000 0.000000 -2.670968 0.872574 0.256442 4.804259 -13.545781 -3.638481 13.916672 -9.291336 -47.379472 -0.138387 30.879890 -4.488325 0.000000 0.000000 0.000000 
12.804532 81.726700 23.437309 179.956674 1.200294 -179.932482 -3.740932 -1.617780 11.144816 3.117742 -3.810059 -23.151111 4.786958 2.813279 26.998455 -2.288627 -8.060171 -10.970646 0.000000 0.000000 0.000000 0.456789 -2.567902 10.119379 -5.737362 1.824003 -21.623380 -0.752526 3.944974 28.960979 8.758901 5.410604 -9.504632 0.000000 0.000000 0.000000 2.542047 0.661701 -0.956712 -6.316978 2.671332 1.690749 -0.030326 -2.145319 2.793805 -0.032446 0.028516 -0.021685 -0.361579 -0.948799 3.317481 0.750510 -1.576909 -12.027613 0.000000 0.000000 0.000000 0.967725 -0.162144 0.783107 12.042664 1.267129 -4.128669 -9.676501 0.933815 -47.043689 0.578405 -32.608163 -6.575720 0.000000 0.000000 0.000000 -2.584254 0.944010 0.227913 4.863540 -13.550130 -3.654315 13.939024 -9.418815 -47.314940 -0.134328 30.860444 -4.435374 0.000000 0.000000 0.000000 
12.810625 81.723839 23.428040 179.883660 1.093900 179.993311 -3.830507 -1.709194 11.197108 3.139225 -3.849627 -23.090460 4.724292 2.861457 27.008530 -2.222230 -8.026160 -10.983727 0.000000 0.000000 0.000000 0.413676 -2.733474 10.122450 -5.754545 1.786037 -21.587714 -0.809929 4.013388 28.975022 8.803270 5.446597 -9.662948 0.000000 0.000000 0.000000 2.476573 0.619539 -0.895797 -6.365231 2.634314 1.741588 -0.009453 -2.160266 2.836786 -0.019576 0.002531 -0.007662 -0.378692 -0.937337 3.301422 0.782948 -1.522721 -11.964704 0.000000 0.000000 0.000000 0.938045 -0.174849 0.726784 11.976759 1.251193 -4.104369 -9.657483 0.994050 -46.905474 0.624520 -32.522741 -6.594270 0.000000 0.000000 0.000000 -2.600215 0.936143 0.195916 4.911831 -13.560348 -3.726501 14.005492 -9.389452 -47.351769 -0.072685 30.810266 -4.316084 0.000000 0.000000 0.000000 
12.813514 81.721329 23.418980 179.956333 1.249857 -179.996276 -3.717896 -1.597862 11.201987 3.070915 -3.766036 -23.079696 4.831555 2.881438 26.970230 -2.361739 -8.115493 -10.946191 0.000000 0.000000 0.000000 0.458409 -2.631517 10.116111 -5.725165 1.825218 -21.566471 -0.792670 4.031201 28.975172 8.782010 5.419128 -9.632518 0.000000 0.000000 0.000000 2.488415 0.640353 -0.880515 -6.326530 2.649886 1.733145 0.044801 -2.127079 2.840694 0.027769 0.029156 -0.009927 -0.409378 -0.960280 3.314717 0.777740 -1.516862 -11.900510 0.000000 0.000000 0.000000 0.898392 -0.135801 0.760429 11.945623 1.287845 -4.138232 -9.697316 1.011599 -46.811968 0.557467 -32.479062 -6.514237 0.000000 0.000000 0.000000 -2.613045 0.934192 0.253726 4.967905 -13.567834 -3.681846 14.030606 -9.361322 -47.330786 -0.112948 30.736213 -4.380869 0.000000 0.000000 0.000000 
